<?xml version="1.0" encoding="UTF-8" standalone="no"?>
<!DOCTYPE svg PUBLIC "-//W3C//DTD SVG 1.1//EN" "http://www.w3.org/Graphics/SVG/1.1/DTD/svg11.dtd">
<svg width="100%" height="100%" viewBox="0 0 413 414" version="1.1" xmlns="http://www.w3.org/2000/svg" xmlns:xlink="http://www.w3.org/1999/xlink" xml:space="preserve" xmlns:serif="http://www.serif.com/" style="fill-rule:evenodd;clip-rule:evenodd;stroke-linejoin:round;stroke-miterlimit:2;">
    <g transform="matrix(1,0,0,1,-762.315,-2193.06)">
        <path d="M1174.94,2606.44L969.008,2606.44C854.931,2606.44 762.315,2513.83 762.315,2399.75C762.315,2285.67 854.931,2193.06 969.008,2193.06L1174.94,2193.06L1174.94,2208.37L969.008,2208.37C863.381,2208.37 777.626,2294.12 777.626,2399.75C777.626,2505.38 863.381,2591.13 969.008,2591.13L1174.94,2591.13L1174.94,2606.44ZM1174.94,2575.82L969.008,2575.82C871.832,2575.82 792.936,2496.93 792.936,2399.75C792.936,2302.57 871.832,2223.68 969.008,2223.68L1174.94,2223.68L1174.94,2238.99L969.008,2238.99C880.282,2238.99 808.247,2311.02 808.247,2399.75C808.247,2488.48 880.282,2560.51 969.008,2560.51L1174.94,2560.51L1174.94,2575.82ZM1174.94,2545.2L969.008,2545.2C888.732,2545.2 823.558,2480.03 823.558,2399.75C823.558,2319.47 888.732,2254.3 969.008,2254.3L1174.94,2254.3L1174.94,2269.61L969.008,2269.61C897.182,2269.61 838.868,2327.92 838.868,2399.75C838.868,2471.58 897.182,2529.89 969.008,2529.89L1174.94,2529.89L1174.94,2545.2ZM1174.94,2514.58L969.008,2514.58C905.632,2514.58 854.179,2463.13 854.179,2399.75C854.179,2336.37 905.632,2284.92 969.008,2284.92L1174.94,2284.92L1174.94,2300.23L969.008,2300.23C914.082,2300.23 869.489,2344.82 869.489,2399.75C869.489,2454.68 914.082,2499.27 969.008,2499.27L1174.94,2499.27L1174.94,2514.58ZM1174.94,2483.96L969.008,2483.96C922.532,2483.96 884.8,2446.23 884.8,2399.75C884.8,2353.27 922.532,2315.54 969.008,2315.54L1174.94,2315.54L1174.94,2330.85L969.008,2330.85C930.983,2330.85 900.111,2361.72 900.111,2399.75C900.111,2437.78 930.983,2468.65 969.008,2468.65L1174.94,2468.65L1174.94,2483.96ZM1174.94,2453.34L969.008,2453.34C939.433,2453.34 915.421,2429.33 915.421,2399.75C915.421,2370.18 939.433,2346.16 969.008,2346.16L1174.94,2346.16L1174.94,2361.47L969.008,2361.47C947.883,2361.47 930.732,2378.62 930.732,2399.75C930.732,2420.88 947.883,2438.03 969.008,2438.03L1174.94,2438.03L1174.94,2453.34ZM1174.94,2422.72L969.008,2422.72C956.333,2422.72 946.042,2412.43 946.042,2399.75C946.042,2387.08 956.333,2376.78 969.008,2376.78L1174.94,2376.78L1174.94,2392.1L969.008,2392.1C964.783,2392.1 961.353,2395.53 961.353,2399.75C961.353,2403.97 964.783,2407.41 969.008,2407.41L1174.94,2407.41L1174.94,2422.72Z" style="fill:rgb(125,185,197);"/>
    </g>
</svg>
